<?xml version="1.0" encoding="UTF-8"?>
<svg width="120" height="120" version="1.1" viewBox="0 0 120 120" xmlns="http://www.w3.org/2000/svg"><path d="m60 0 60 60-60 60-60-60z" fill="#f9f9f9"/><path d="m60 2.9297-57.07 57.07 32.07 32.07v-14.141l-17.93-17.93 42.93-42.93v-14.141zm25 25v14.141l17.93 17.93-42.93 42.93v14.141l57.07-57.07-32.07-32.07zm-45 12.07v30h10v-15.857l10 10 10-10v15.857h10v-30h-10l-10 10-10-10zm30 30h-20v10h-4.1426l14.143 14.143 14.143-14.143h-4.1426v-10z" fill="#404040"/></svg>
